<?xml version="1.0" encoding="UTF-8" standalone="no"?>
<!-- Created with Inkscape (http://www.inkscape.org/) -->

<svg
   width="128.7359mm"
   height="75.428116mm"
   viewBox="0 0 128.7359 75.428116"
   version="1.1"
   id="svg1"
   xml:space="preserve"
   xmlns="http://www.w3.org/2000/svg"
   xmlns:svg="http://www.w3.org/2000/svg"><defs
     id="defs1"><clipPath
       clipPathUnits="userSpaceOnUse"
       id="clipPath1"><rect
         style="fill:#ffffff;stroke-width:0.999999"
         id="rect2"
         width="486.56088"
         height="285.08261"
         x="225.81487"
         y="107.47896" /></clipPath></defs><g
     id="layer1"
     transform="translate(-44.570722,-96.309545)"><g
       style="fill:none;stroke:none;stroke-linecap:square;stroke-miterlimit:10"
       id="g1"
       transform="matrix(0.26458333,0,0,0.26458333,-15.176129,67.872406)"
       clip-path="url(#clipPath1)"><g
         clip-path="url(#g29ded0147f0_0_15.0)"
         id="g91"><path
           fill="#ffffff"
           d="M 0,0 H 960 V 540 H 0 Z"
           fill-rule="evenodd"
           id="path2" /><path
           fill="#ffffff"
           d="M 320.09317,151.12599 H 545.88843 V 303.75592 H 320.09317 Z"
           fill-rule="evenodd"
           id="path3" /><path
           stroke="#595959"
           stroke-width="2"
           stroke-linejoin="round"
           stroke-linecap="butt"
           stroke-dasharray="2, 6"
           d="M 320.09317,151.12599 H 545.88843 V 303.75592 H 320.09317 Z"
           fill-rule="evenodd"
           id="path4" /><path
           fill="#000000"
           fill-opacity="0"
           d="m 252.01312,321.44357 349.95276,1.32285"
           fill-rule="evenodd"
           id="path5" /><path
           stroke="#000000"
           stroke-width="3"
           stroke-linejoin="round"
           stroke-linecap="butt"
           d="m 252.01312,321.44357 349.95276,1.32285"
           fill-rule="evenodd"
           id="path6" /><path
           fill="#000000"
           fill-opacity="0"
           d="m 330.00525,333.0656 h 198.07874 v 30.51968 H 330.00525 Z"
           fill-rule="evenodd"
           id="path7" /><path
           fill="#333333"
           d="m 340.75525,363.82562 v -16.21875 h 6.10937 q 1.625,0 2.46875,0.15625 1.20313,0.20313 2,0.76563 0.8125,0.54687 1.29688,1.5625 0.5,1 0.5,2.20312 0,2.07813 -1.3125,3.51563 -1.3125,1.42187 -4.76563,1.42187 h -4.15625 v 6.59375 z m 2.14062,-8.5 h 4.20313 q 2.07812,0 2.95312,-0.78125 0.875,-0.78125 0.875,-2.17187 0,-1.03125 -0.51562,-1.75 -0.51563,-0.71875 -1.35938,-0.95313 -0.54687,-0.14062 -2,-0.14062 h -4.15625 z m 12.68967,8.5 v -11.75 h 1.79688 v 1.78125 q 0.6875,-1.25 1.26562,-1.64062 0.57813,-0.40625 1.28125,-0.40625 1,0 2.04688,0.64062 l -0.6875,1.84375 q -0.73438,-0.42187 -1.46875,-0.42187 -0.64063,0 -1.17188,0.39062 -0.51562,0.39063 -0.73437,1.09375 -0.32813,1.0625 -0.32813,2.3125 v 6.15625 z m 6.82596,-5.875 q 0,-3.26562 1.8125,-4.82812 1.51563,-1.3125 3.70313,-1.3125 2.42187,0 3.95312,1.59375 1.54688,1.57812 1.54688,4.375 0,2.28125 -0.6875,3.57812 -0.67188,1.29688 -1.98438,2.01563 -1.29687,0.71875 -2.82812,0.71875 -2.46875,0 -4,-1.57813 -1.51563,-1.57812 -1.51563,-4.5625 z m 2.04688,0 q 0,2.25 0.98437,3.375 0.98438,1.125 2.48438,1.125 1.48437,0 2.46875,-1.125 0.98437,-1.125 0.98437,-3.4375 0,-2.1875 -1,-3.29687 -0.98437,-1.125 -2.45312,-1.125 -1.5,0 -2.48438,1.125 -0.98437,1.10937 -0.98437,3.35937 z m 11.30346,10.375 v -16.25 h 1.8125 v 1.53125 q 0.64063,-0.90625 1.4375,-1.34375 0.8125,-0.45312 1.96875,-0.45312 1.5,0 2.64063,0.78125 1.15625,0.76562 1.73437,2.1875 0.59375,1.40625 0.59375,3.07812 0,1.8125 -0.64062,3.26563 -0.64063,1.4375 -1.875,2.20312 -1.23438,0.76563 -2.59375,0.76563 -1,0 -1.79688,-0.42188 -0.78125,-0.42187 -1.29687,-1.0625 v 5.71875 z m 1.79688,-10.3125 q 0,2.26563 0.92187,3.35938 0.92188,1.07812 2.21875,1.07812 1.32813,0 2.26563,-1.125 0.95312,-1.125 0.95312,-3.46875 0,-2.25 -0.92187,-3.35937 -0.92188,-1.125 -2.20313,-1.125 -1.28125,0 -2.26562,1.1875 -0.96875,1.1875 -0.96875,3.45312 z m 18.83468,2.03125 2.0625,0.25 q -0.48437,1.8125 -1.8125,2.8125 -1.3125,0.98438 -3.35937,0.98438 -2.57813,0 -4.09375,-1.57813 -1.5,-1.59375 -1.5,-4.46875 0,-2.95312 1.53125,-4.59375 1.53125,-1.64062 3.95312,-1.64062 2.35938,0 3.84375,1.60937 1.5,1.59375 1.5,4.51563 0,0.17187 0,0.53125 h -8.76562 q 0.10937,1.9375 1.09375,2.96875 0.98437,1.01562 2.45312,1.01562 1.09375,0 1.85938,-0.5625 0.78125,-0.57812 1.23437,-1.84375 z m -6.53125,-3.21875 h 6.5625 q -0.14062,-1.48437 -0.75,-2.21875 -0.95312,-1.15625 -2.46875,-1.15625 -1.375,0 -2.3125,0.92188 -0.9375,0.90625 -1.03125,2.45312 z m 11.10035,7 v -11.75 h 1.78125 v 1.67188 q 1.29687,-1.9375 3.75,-1.9375 1.0625,0 1.95312,0.39062 0.89063,0.375 1.32813,1 0.4375,0.60938 0.625,1.46875 0.10937,0.54688 0.10937,1.9375 v 7.21875 h -2 V 356.685 q 0,-1.21875 -0.23437,-1.8125 -0.23438,-0.60938 -0.82813,-0.96875 -0.57812,-0.35938 -1.375,-0.35938 -1.28125,0 -2.20312,0.8125 -0.92188,0.79688 -0.92188,3.04688 v 6.42187 z m 11.80343,-3.5 1.96875,-0.3125 q 0.15625,1.17188 0.90625,1.8125 0.76563,0.625 2.125,0.625 1.375,0 2.03125,-0.54687 0.67188,-0.5625 0.67188,-1.3125 0,-0.6875 -0.57813,-1.0625 -0.42187,-0.26563 -2.04687,-0.6875 -2.1875,-0.54688 -3.03125,-0.95313 -0.84375,-0.40625 -1.28125,-1.10937 -0.4375,-0.71875 -0.4375,-1.57813 0,-0.79687 0.35937,-1.45312 0.35938,-0.67188 0.98438,-1.125 0.45312,-0.32813 1.25,-0.5625 0.8125,-0.25 1.73437,-0.25 1.375,0 2.42188,0.40625 1.04687,0.39062 1.54687,1.07812 0.5,0.67188 0.6875,1.8125 l -1.95312,0.26563 q -0.125,-0.90625 -0.76563,-1.40625 -0.64062,-0.51563 -1.79687,-0.51563 -1.375,0 -1.96875,0.45313 -0.57813,0.45312 -0.57813,1.0625 0,0.39062 0.25,0.6875 0.23438,0.32812 0.75,0.53125 0.3125,0.125 1.76563,0.51562 2.10937,0.5625 2.9375,0.92188 0.84375,0.35937 1.3125,1.04687 0.48437,0.6875 0.48437,1.70313 0,1 -0.57812,1.875 -0.57813,0.875 -1.67188,1.35937 -1.09375,0.48438 -2.48437,0.48438 -2.29688,0 -3.5,-0.95313 -1.1875,-0.95312 -1.51563,-2.8125 z m 12.125,-10.42187 v -2.29688 h 2 v 2.29688 z m 0,13.92187 v -11.75 h 2 v 11.75 z m 9.37726,-1.78125 0.28125,1.76563 q -0.84375,0.17187 -1.5,0.17187 -1.07813,0 -1.6875,-0.34375 -0.59375,-0.34375 -0.84375,-0.89062 -0.23438,-0.5625 -0.23438,-2.35938 v -6.76562 h -1.46875 v -1.54688 h 1.46875 v -2.90625 l 1.98438,-1.20312 v 4.10937 h 2 v 1.54688 h -2 v 6.875 q 0,0.84375 0.0937,1.09375 0.10937,0.25 0.34375,0.39062 0.25,0.14063 0.6875,0.14063 0.32812,0 0.875,-0.0781 z m 1.85712,6.3125 -0.21875,-1.875 q 0.65625,0.17188 1.14062,0.17188 0.65625,0 1.04688,-0.21875 0.40625,-0.21875 0.65625,-0.625 0.1875,-0.29688 0.60937,-1.46875 0.0625,-0.17188 0.1875,-0.5 l -4.46875,-11.76563 h 2.15625 l 2.4375,6.8125 q 0.48438,1.28125 0.85938,2.71875 0.34375,-1.375 0.8125,-2.6875 l 2.51562,-6.84375 h 1.98438 l -4.46875,11.95313 q -0.71875,1.9375 -1.10938,2.65625 -0.53125,0.98437 -1.21875,1.4375 -0.6875,0.46875 -1.64062,0.46875 -0.57813,0 -1.28125,-0.23438 z m 16.91964,-8.03125 1.96875,-0.3125 q 0.15625,1.17188 0.90625,1.8125 0.76563,0.625 2.125,0.625 1.375,0 2.03125,-0.54687 0.67188,-0.5625 0.67188,-1.3125 0,-0.6875 -0.57813,-1.0625 -0.42187,-0.26563 -2.04687,-0.6875 -2.1875,-0.54688 -3.03125,-0.95313 -0.84375,-0.40625 -1.28125,-1.10937 -0.4375,-0.71875 -0.4375,-1.57813 0,-0.79687 0.35937,-1.45312 0.35938,-0.67188 0.98438,-1.125 0.45312,-0.32813 1.25,-0.5625 0.8125,-0.25 1.73437,-0.25 1.375,0 2.42188,0.40625 1.04687,0.39062 1.54687,1.07812 0.5,0.67188 0.6875,1.8125 l -1.95312,0.26563 q -0.125,-0.90625 -0.76563,-1.40625 -0.64062,-0.51563 -1.79687,-0.51563 -1.375,0 -1.96875,0.45313 -0.57813,0.45312 -0.57813,1.0625 0,0.39062 0.25,0.6875 0.23438,0.32812 0.75,0.53125 0.3125,0.125 1.76563,0.51562 2.10937,0.5625 2.9375,0.92188 0.84375,0.35937 1.3125,1.04687 0.48437,0.6875 0.48437,1.70313 0,1 -0.57812,1.875 -0.57813,0.875 -1.67188,1.35937 -1.09375,0.48438 -2.48437,0.48438 -2.29688,0 -3.5,-0.95313 -1.1875,-0.95312 -1.51563,-2.8125 z m 19.78125,-0.79687 1.96875,0.25 q -0.32812,2.01562 -1.65625,3.17187 -1.3125,1.14063 -3.23437,1.14063 -2.42188,0 -3.89063,-1.57813 -1.45312,-1.57812 -1.45312,-4.51562 0,-1.90625 0.625,-3.32813 0.625,-1.4375 1.90625,-2.14062 1.29687,-0.71875 2.8125,-0.71875 1.92187,0 3.14062,0.96875 1.21875,0.96875 1.5625,2.75 l -1.9375,0.29687 q -0.28125,-1.1875 -0.98437,-1.78125 -0.70313,-0.59375 -1.70313,-0.59375 -1.5,0 -2.4375,1.07813 -0.9375,1.07812 -0.9375,3.40625 0,2.375 0.90625,3.45312 0.90625,1.0625 2.35938,1.0625 1.17187,0 1.95312,-0.71875 0.79688,-0.71875 1,-2.20312 z m 2.92188,-1.57813 q 0,-3.26562 1.8125,-4.82812 1.51562,-1.3125 3.70312,-1.3125 2.42188,0 3.95313,1.59375 1.54687,1.57812 1.54687,4.375 0,2.28125 -0.6875,3.57812 -0.67187,1.29688 -1.98437,2.01563 -1.29688,0.71875 -2.82813,0.71875 -2.46875,0 -4,-1.57813 -1.51562,-1.57812 -1.51562,-4.5625 z m 2.04687,0 q 0,2.25 0.98438,3.375 0.98437,1.125 2.48437,1.125 1.48438,0 2.46875,-1.125 0.98438,-1.125 0.98438,-3.4375 0,-2.1875 -1,-3.29687 -0.98438,-1.125 -2.45313,-1.125 -1.5,0 -2.48437,1.125 -0.98438,1.10937 -0.98438,3.35937 z m 11.27219,5.875 v -11.75 h 1.79687 v 1.78125 q 0.6875,-1.25 1.26563,-1.64062 0.57812,-0.40625 1.28125,-0.40625 1,0 2.04687,0.64062 l -0.6875,1.84375 q -0.73437,-0.42187 -1.46875,-0.42187 -0.64062,0 -1.17187,0.39062 -0.51563,0.39063 -0.73438,1.09375 -0.32812,1.0625 -0.32812,2.3125 v 6.15625 z m 15.60721,-3.78125 2.0625,0.25 q -0.48438,1.8125 -1.8125,2.8125 -1.3125,0.98438 -3.35938,0.98438 -2.57812,0 -4.09375,-1.57813 -1.5,-1.59375 -1.5,-4.46875 0,-2.95312 1.53125,-4.59375 1.53125,-1.64062 3.95313,-1.64062 2.35937,0 3.84375,1.60937 1.5,1.59375 1.5,4.51563 0,0.17187 0,0.53125 h -8.76563 q 0.10938,1.9375 1.09375,2.96875 0.98438,1.01562 2.45313,1.01562 1.09375,0 1.85937,-0.5625 0.78125,-0.57812 1.23438,-1.84375 z m -6.53125,-3.21875 h 6.5625 q -0.14063,-1.48437 -0.75,-2.21875 -0.95313,-1.15625 -2.46875,-1.15625 -1.375,0 -2.3125,0.92188 -0.9375,0.90625 -1.03125,2.45312 z"
           fill-rule="nonzero"
           id="path8" /><path
           fill="#000000"
           fill-opacity="0"
           d="m 251.1076,311.74277 h 36.62991 v 21.32284 H 251.1076 Z"
           fill-rule="evenodd"
           id="path9" /><path
           fill="#000000"
           d="m 261.0451,334.50278 q 0,-2.875 0.59375,-4.625 0.59375,-1.75 1.75,-2.70313 1.17187,-0.95312 2.95312,-0.95312 1.29688,0 2.28125,0.53125 0.98438,0.51562 1.625,1.51562 0.64063,0.98438 1,2.40625 0.375,1.42188 0.375,3.82813 0,2.85937 -0.59375,4.60937 -0.57812,1.75 -1.75,2.71875 -1.15625,0.95313 -2.9375,0.95313 -2.34375,0 -3.6875,-1.6875 -1.60937,-2.01563 -1.60937,-6.59375 z m 2.04687,0 q 0,4 0.9375,5.32812 0.9375,1.3125 2.3125,1.3125 1.35938,0 2.29688,-1.32812 0.9375,-1.32813 0.9375,-5.3125 0,-4 -0.9375,-5.3125 -0.9375,-1.32813 -2.32813,-1.32813 -1.375,0 -2.1875,1.17188 -1.03125,1.48437 -1.03125,5.46875 z"
           fill-rule="nonzero"
           id="path10" /><path
           fill="#000000"
           fill-opacity="0"
           d="m 575.80316,311.74277 h 36.62988 v 21.32284 h -36.62988 z"
           fill-rule="evenodd"
           id="path11" /><path
           fill="#000000"
           d="m 593.24066,342.50278 h -1.98437 v -12.6875 q -0.71875,0.6875 -1.89063,1.375 -1.17187,0.6875 -2.09375,1.03125 v -1.9375 q 1.67188,-0.78125 2.92188,-1.89063 1.25,-1.125 1.76562,-2.17187 h 1.28125 z"
           fill-rule="nonzero"
           id="path12" /><path
           fill="#8f09a7"
           d="m 385.69815,208.04121 v 0 c 0,-3.0006 2.65106,-5.43306 5.92126,-5.43306 v 0 c 3.27024,0 5.92127,2.43246 5.92127,5.43306 v 0 c 0,3.00061 -2.65103,5.43307 -5.92127,5.43307 v 0 c -3.2702,0 -5.92126,-2.43246 -5.92126,-5.43307 z"
           fill-rule="evenodd"
           id="path13" /><path
           fill="#8f09a7"
           d="m 407.93292,178.24594 v 0 c 0,-3.0006 2.65106,-5.43308 5.92126,-5.43308 v 0 c 3.27024,0 5.92127,2.43248 5.92127,5.43308 v 0 c 0,3.00061 -2.65103,5.43307 -5.92127,5.43307 v 0 c -3.2702,0 -5.92126,-2.43246 -5.92126,-5.43307 z"
           fill-rule="evenodd"
           id="path14" /><path
           fill="#8f09a7"
           d="m 439.65253,200.54852 v 0 c 0,-3.0006 2.53116,-5.43306 5.65353,-5.43306 v 0 c 1.49942,0 2.93741,0.5724 3.99765,1.59131 1.06028,1.01889 1.65589,2.40082 1.65589,3.84175 v 0 c 0,3.00061 -2.53116,5.43307 -5.65354,5.43307 v 0 c -3.12237,0 -5.65353,-2.43246 -5.65353,-5.43307 z"
           fill-rule="evenodd"
           id="path15" /><path
           fill="#8f09a7"
           d="m 363.42813,189.68272 v 0 c 0,-3.00061 2.65103,-5.43308 5.92126,-5.43308 v 0 c 3.27021,0 5.92127,2.43247 5.92127,5.43308 v 0 c 0,3.00059 -2.65106,5.43307 -5.92127,5.43307 v 0 c -3.27023,0 -5.92126,-2.43247 -5.92126,-5.43307 z"
           fill-rule="evenodd"
           id="path16" /><path
           fill="#8f09a7"
           d="m 500.02197,167.38147 v 0 c 0,-3.0006 2.65103,-5.43308 5.92126,-5.43308 v 0 c 3.27021,0 5.92127,2.43248 5.92127,5.43308 v 0 c 0,3.00059 -2.65106,5.43307 -5.92127,5.43307 v 0 c -3.27023,0 -5.92126,-2.43247 -5.92126,-5.43307 z"
           fill-rule="evenodd"
           id="path17" /><path
           fill="#8f09a7"
           d="m 324.6283,180.98384 v 0 c 0,-3.00061 2.65103,-5.43308 5.92126,-5.43308 v 0 c 3.27024,0 5.92127,2.43247 5.92127,5.43308 v 0 c 0,3.00059 -2.65103,5.43306 -5.92127,5.43306 v 0 c -3.27023,0 -5.92126,-2.43246 -5.92126,-5.43306 z"
           fill-rule="evenodd"
           id="path18" /><path
           fill="#8f09a7"
           d="m 522.4565,200.5483 v 0 c 0,-3.00061 2.53119,-5.43308 5.65356,-5.43308 v 0 c 1.49939,0 2.93744,0.57242 3.99769,1.59131 1.06024,1.01891 1.65588,2.40082 1.65588,3.84177 v 0 c 0,3.0006 -2.53119,5.43308 -5.65357,5.43308 v 0 c -3.12237,0 -5.65356,-2.43248 -5.65356,-5.43308 z"
           fill-rule="evenodd"
           id="path19" /><path
           fill="#8f09a7"
           d="m 465.70392,175.2519 v 0 c 0,-3.0006 2.53116,-5.43308 5.65353,-5.43308 v 0 c 1.49942,0 2.93741,0.57242 3.99765,1.59133 1.06025,1.01889 1.65589,2.40082 1.65589,3.84175 v 0 c 0,3.00061 -2.53116,5.43307 -5.65354,5.43307 v 0 c -3.12237,0 -5.65353,-2.43246 -5.65353,-5.43307 z"
           fill-rule="evenodd"
           id="path20" /><path
           fill="#8f09a7"
           d="m 268.7461,180.98419 v 0 c 0,-3.0006 2.53119,-5.43308 5.65353,-5.43308 v 0 c 1.49942,0 2.93741,0.57242 3.99768,1.59131 1.06025,1.01891 1.65589,2.40084 1.65589,3.84177 v 0 c 0,3.00061 -2.53119,5.43308 -5.65357,5.43308 v 0 c -3.12234,0 -5.65353,-2.43247 -5.65353,-5.43308 z"
           fill-rule="evenodd"
           id="path21" /><path
           fill="#8f09a7"
           d="m 304.89832,194.49338 v 0 c 0,-3.0006 2.53119,-5.43308 5.65356,-5.43308 v 0 c 1.49939,0 2.93741,0.57242 3.99765,1.59131 1.06025,1.01891 1.65589,2.40084 1.65589,3.84177 v 0 c 0,3.00061 -2.53119,5.43307 -5.65354,5.43307 v 0 c -3.12237,0 -5.65356,-2.43246 -5.65356,-5.43307 z"
           fill-rule="evenodd"
           id="path22" /><path
           fill="#8f09a7"
           d="m 268.7461,208.04193 v 0 c 0,-3.0006 2.53119,-5.43306 5.65353,-5.43306 v 0 c 1.49942,0 2.93741,0.5724 3.99768,1.59131 1.06025,1.01889 1.65589,2.40082 1.65589,3.84175 v 0 c 0,3.00061 -2.53119,5.43307 -5.65357,5.43307 v 0 c -3.12234,0 -5.65353,-2.43246 -5.65353,-5.43307 z"
           fill-rule="evenodd"
           id="path23" /><path
           fill="#8f09a7"
           d="m 292.12143,170.11806 v 0 c 0,-3.00061 2.53116,-5.43308 5.65353,-5.43308 v 0 c 1.49942,0 2.93741,0.57241 3.99765,1.59131 1.06025,1.01891 1.65589,2.40082 1.65589,3.84177 v 0 c 0,3.0006 -2.53116,5.43306 -5.65354,5.43306 v 0 c -3.12237,0 -5.65353,-2.43246 -5.65353,-5.43306 z"
           fill-rule="evenodd"
           id="path24" /><path
           fill="#d3d3d3"
           d="m 375.27167,288.22495 v 0 c 0,-3.00061 2.65103,-5.43308 5.92123,-5.43308 v 0 c 3.27024,0 5.92127,2.43247 5.92127,5.43308 v 0 c 0,3.00061 -2.65103,5.43307 -5.92127,5.43307 v 0 c -3.2702,0 -5.92123,-2.43246 -5.92123,-5.43307 z"
           fill-rule="evenodd"
           id="path25" /><path
           fill="#d3d3d3"
           d="m 445.49722,252.98347 v 0 c 0,-3.0006 2.65106,-5.43308 5.92126,-5.43308 v 0 c 3.27024,0 5.92127,2.43248 5.92127,5.43308 v 0 c 0,3.0006 -2.65103,5.43306 -5.92127,5.43306 v 0 c -3.2702,0 -5.92126,-2.43246 -5.92126,-5.43306 z"
           fill-rule="evenodd"
           id="path26" /><path
           fill="#d3d3d3"
           d="m 430.49374,283.41467 v 0 c 0,-3.00061 2.53116,-5.43307 5.65353,-5.43307 v 0 c 1.49942,0 2.93741,0.57241 3.99765,1.5913 1.06025,1.01889 1.65589,2.40082 1.65589,3.84177 v 0 c 0,3.00061 -2.53116,5.43307 -5.65354,5.43307 v 0 c -3.12237,0 -5.65353,-2.43246 -5.65353,-5.43307 z"
           fill-rule="evenodd"
           id="path27" /><path
           fill="#d3d3d3"
           d="m 334.44464,288.22702 v 0 c 0,-3.00058 2.65103,-5.43304 5.92126,-5.43304 v 0 c 3.27021,0 5.92127,2.43246 5.92127,5.43304 v 0 c 0,3.00061 -2.65106,5.43307 -5.92127,5.43307 v 0 c -3.27023,0 -5.92126,-2.43246 -5.92126,-5.43307 z"
           fill-rule="evenodd"
           id="path28" /><path
           fill="#d3d3d3"
           d="m 359.585,252.98384 v 0 c 0,-3.00061 2.65103,-5.43308 5.92126,-5.43308 v 0 c 3.27024,0 5.92127,2.43247 5.92127,5.43308 v 0 c 0,3.00059 -2.65103,5.43306 -5.92127,5.43306 v 0 c -3.27023,0 -5.92126,-2.43246 -5.92126,-5.43306 z"
           fill-rule="evenodd"
           id="path29" /><path
           fill="#d3d3d3"
           d="m 530.4565,272.54828 v 0 c 0,-3.00058 2.53119,-5.43304 5.65356,-5.43304 v 0 c 1.49939,0 2.93744,0.57238 3.99769,1.5913 1.06024,1.01889 1.65588,2.40082 1.65588,3.84174 v 0 c 0,3.00061 -2.53119,5.43307 -5.65357,5.43307 v 0 c -3.12237,0 -5.65356,-2.43246 -5.65356,-5.43307 z"
           fill-rule="evenodd"
           id="path30" /><path
           fill="#d3d3d3"
           d="m 499.88782,288.22568 v 0 c 0,-3.00061 2.53119,-5.43307 5.65356,-5.43307 v 0 c 1.49939,0 2.93741,0.57238 3.99765,1.5913 1.06025,1.01889 1.65589,2.40082 1.65589,3.84177 v 0 c 0,3.00058 -2.53119,5.43304 -5.65354,5.43304 v 0 c -3.12237,0 -5.65356,-2.43246 -5.65356,-5.43304 z"
           fill-rule="evenodd"
           id="path31" /><path
           fill="#d3d3d3"
           d="m 469.63568,272.5485 v 0 c 0,-3.00061 2.53116,-5.43307 5.65353,-5.43307 v 0 c 1.49942,0 2.93741,0.57241 3.99765,1.5913 1.06025,1.01892 1.65589,2.40082 1.65589,3.84177 v 0 c 0,3.00061 -2.53116,5.43307 -5.65354,5.43307 v 0 c -3.12237,0 -5.65353,-2.43246 -5.65353,-5.43307 z"
           fill-rule="evenodd"
           id="path32" /><path
           fill="#d3d3d3"
           d="m 564.49677,249.97238 v 0 c 0,-3.0006 2.53119,-5.43308 5.6535,-5.43308 v 0 c 1.49945,0 2.93744,0.57242 3.99768,1.59131 1.06025,1.01891 1.65589,2.40084 1.65589,3.84177 v 0 c 0,3.00061 -2.53119,5.43307 -5.65357,5.43307 v 0 c -3.12231,0 -5.6535,-2.43246 -5.6535,-5.43307 z"
           fill-rule="evenodd"
           id="path33" /><path
           fill="#d3d3d3"
           d="m 578.0348,275.9212 v 0 c 0,-3.00061 2.53119,-5.43307 5.65356,-5.43307 v 0 c 1.49939,0 2.93744,0.57241 3.99769,1.5913 1.06024,1.01889 1.65588,2.40082 1.65588,3.84177 v 0 c 0,3.00061 -2.53119,5.43307 -5.65357,5.43307 v 0 c -3.12237,0 -5.65356,-2.43246 -5.65356,-5.43307 z"
           fill-rule="evenodd"
           id="path34" /><path
           fill="#d3d3d3"
           d="m 558.666,294.58655 v 0 c 0,-3.00058 2.53119,-5.43307 5.65356,-5.43307 v 0 c 1.49939,0 2.93744,0.57241 3.99769,1.5913 1.06024,1.01892 1.65588,2.40085 1.65588,3.84177 v 0 c 0,3.00061 -2.53119,5.43307 -5.65357,5.43307 v 0 c -3.12237,0 -5.65356,-2.43246 -5.65356,-5.43307 z"
           fill-rule="evenodd"
           id="path35" /><path
           fill="#8f09a7"
           d="m 632.88715,214.53806 v 0 c 0,-4.11386 3.33496,-7.44882 7.44879,-7.44882 v 0 c 1.97559,0 3.87018,0.78479 5.26715,2.18171 1.39691,1.39693 2.1817,3.29157 2.1817,5.26711 v 0 c 0,4.11388 -3.33496,7.44882 -7.44885,7.44882 v 0 c -4.11383,0 -7.44879,-3.33494 -7.44879,-7.44882 z"
           fill-rule="evenodd"
           id="path36" /><path
           fill="#d3d3d3"
           d="m 632.88715,234.53543 v 0 c 0,-4.11386 3.33496,-7.44882 7.44879,-7.44882 v 0 c 1.97559,0 3.87018,0.78479 5.26715,2.18171 1.39691,1.39693 2.1817,3.29157 2.1817,5.26711 v 0 c 0,4.11388 -3.33496,7.44882 -7.44885,7.44882 v 0 c -4.11383,0 -7.44879,-3.33494 -7.44879,-7.44882 z"
           fill-rule="evenodd"
           id="path37" /><path
           fill="#000000"
           fill-opacity="0"
           d="m 655.65356,213.46243 h 73.54327 v 26.86614 h -73.54327 z"
           fill-rule="evenodd"
           id="path38" /><path
           fill="#000000"
           d="m 666.07544,240.38243 v -13.35938 h 1.8125 l 7.01562,10.48438 v -10.48438 h 1.6875 v 13.35938 h -1.8125 l -7.01562,-10.5 v 10.5 z m 16.89477,0 v -11.78125 h -4.40625 v -1.57813 h 10.57813 v 1.57813 h -4.40625 v 11.78125 z m 17.521,-4.6875 1.76563,0.45312 q -0.5625,2.17188 -2,3.32813 -1.4375,1.14062 -3.53125,1.14062 -2.15625,0 -3.51563,-0.875 -1.34375,-0.89062 -2.0625,-2.54687 -0.70312,-1.67188 -0.70312,-3.59375 0,-2.07813 0.79687,-3.625 0.79688,-1.5625 2.26563,-2.35938 1.48437,-0.8125 3.25,-0.8125 2,0 3.35937,1.01563 1.375,1.01562 1.90625,2.875 l -1.73437,0.40625 q -0.46875,-1.45313 -1.35938,-2.10938 -0.875,-0.67187 -2.20312,-0.67187 -1.54688,0 -2.57813,0.73437 -1.03125,0.73438 -1.45312,1.98438 -0.42188,1.23437 -0.42188,2.5625 0,1.70312 0.5,2.96875 0.5,1.26562 1.54688,1.90625 1.04687,0.625 2.26562,0.625 1.48438,0 2.51563,-0.85938 1.03125,-0.85937 1.39062,-2.54687 z"
           fill-rule="nonzero"
           id="path39" /><path
           fill="#000000"
           fill-opacity="0"
           d="m 655.65356,193.78215 h 73.54327 v 26.86615 h -73.54327 z"
           fill-rule="evenodd"
           id="path40" /><path
           fill="#000000"
           d="m 664.6223,220.70215 5.125,-13.35938 h 1.90625 l 5.46875,13.35938 h -2.01563 l -1.54687,-4.04688 h -5.59375 l -1.46875,4.04688 z m 3.85937,-5.48438 h 4.53125 l -1.40625,-3.70312 q -0.625,-1.6875 -0.9375,-2.76563 -0.26562,1.28125 -0.71875,2.54688 z m 9.45917,1.1875 1.65625,-0.14062 q 0.125,1 0.54688,1.64062 0.4375,0.64063 1.34375,1.04688 0.92187,0.39062 2.0625,0.39062 1,0 1.78125,-0.29687 0.78125,-0.29688 1.15625,-0.8125 0.375,-0.53125 0.375,-1.15625 0,-0.625 -0.375,-1.09375 -0.35938,-0.46875 -1.1875,-0.79688 -0.54688,-0.20312 -2.39063,-0.64062 -1.82812,-0.45313 -2.5625,-0.84375 -0.96875,-0.5 -1.4375,-1.23438 -0.46875,-0.75 -0.46875,-1.67187 0,-1 0.57813,-1.875 0.57812,-0.89063 1.67187,-1.34375 1.10938,-0.45313 2.45313,-0.45313 1.48437,0 2.60937,0.48438 1.14063,0.46875 1.75,1.40625 0.60938,0.92187 0.65625,2.09375 l -1.6875,0.125 q -0.14062,-1.26563 -0.9375,-1.90625 -0.78125,-0.65625 -2.3125,-0.65625 -1.60937,0 -2.34375,0.59375 -0.73437,0.59375 -0.73437,1.42187 0,0.71875 0.53125,1.17188 0.5,0.46875 2.65625,0.96875 2.15625,0.48437 2.95312,0.84375 1.17188,0.53125 1.71875,1.35937 0.5625,0.82813 0.5625,1.90625 0,1.0625 -0.60937,2.01563 -0.60938,0.9375 -1.75,1.46875 -1.14063,0.51562 -2.57813,0.51562 -1.8125,0 -3.04687,-0.53125 -1.21875,-0.53125 -1.92188,-1.59375 -0.6875,-1.0625 -0.71875,-2.40625 z m 13.03736,4.29688 v -13.35938 h 4.60937 q 1.54688,0 2.375,0.20313 1.14063,0.25 1.95313,0.95312 1.0625,0.89063 1.57812,2.28125 0.53125,1.39063 0.53125,3.17188 0,1.51562 -0.35937,2.70312 -0.35938,1.17188 -0.92188,1.9375 -0.54687,0.76563 -1.20312,1.21875 -0.65625,0.4375 -1.59375,0.67188 -0.9375,0.21875 -2.14063,0.21875 z m 1.76562,-1.57813 h 2.85938 q 1.3125,0 2.0625,-0.23437 0.75,-0.25 1.20312,-0.70313 0.625,-0.625 0.96875,-1.6875 0.35938,-1.0625 0.35938,-2.57812 0,-2.09375 -0.6875,-3.21875 -0.6875,-1.125 -1.67188,-1.5 -0.70312,-0.28125 -2.28125,-0.28125 h -2.8125 z"
           fill-rule="nonzero"
           id="path41" /><path
           fill="#000000"
           fill-opacity="0"
           d="m 533.8097,255.59055 -4.56689,-46.92912"
           fill-rule="evenodd"
           id="path42" /><path
           stroke="#595959"
           stroke-width="1"
           stroke-linejoin="round"
           stroke-linecap="butt"
           d="m 533.8097,255.59055 -3.98578,-40.95734"
           fill-rule="evenodd"
           id="path43" /><path
           fill="#595959"
           stroke="#595959"
           stroke-width="1"
           stroke-linecap="butt"
           d="m 531.4679,214.47322 -2.0835,-4.35678 -1.2044,4.67674 z"
           fill-rule="evenodd"
           id="path44" /><path
           fill="#000000"
           fill-opacity="0"
           d="m 529.7059,213.47481 5.19684,50.96062"
           fill-rule="evenodd"
           id="path45" /><path
           stroke="#595959"
           stroke-width="1"
           stroke-linejoin="round"
           stroke-linecap="butt"
           d="m 529.7058,213.4748 4.58813,44.99161"
           fill-rule="evenodd"
           id="path46" /><path
           fill="#595959"
           stroke="#595959"
           stroke-width="1"
           stroke-linecap="butt"
           d="m 532.65076,258.63397 2.10364,4.34711 1.1828,-4.68225 z"
           fill-rule="evenodd"
           id="path47" /><path
           fill="#000000"
           fill-opacity="0"
           d="m 416.5079,194.9171 15.21258,79.2126"
           fill-rule="evenodd"
           id="path48" /><path
           stroke="#595959"
           stroke-width="1"
           stroke-linejoin="round"
           stroke-linecap="butt"
           d="m 416.5079,194.9171 14.08099,73.32027"
           fill-rule="evenodd"
           id="path49" /><path
           fill="#595959"
           stroke="#595959"
           stroke-width="1"
           stroke-linecap="butt"
           d="m 428.96683,268.5489 2.47797,4.14514 0.7662,-4.76819 z"
           fill-rule="evenodd"
           id="path50" /><path
           fill="#000000"
           fill-opacity="0"
           d="M 428.92838,260.47638 415.10163,187.43703"
           fill-rule="evenodd"
           id="path51" /><path
           stroke="#595959"
           stroke-width="1"
           stroke-linejoin="round"
           stroke-linecap="butt"
           d="M 428.9284,260.4764 416.21765,193.33231"
           fill-rule="evenodd"
           id="path52" /><path
           fill="#595959"
           stroke="#595959"
           stroke-width="1"
           stroke-linecap="butt"
           d="m 417.84055,193.0251 -2.46701,-4.15169 -0.77881,4.76615 z"
           fill-rule="evenodd"
           id="path53" /><path
           fill="#000000"
           fill-opacity="0"
           d="m 253.16798,121.09712 -0.0315,200.34646"
           fill-rule="evenodd"
           id="path54" /><path
           stroke="#000000"
           stroke-width="3"
           stroke-linejoin="round"
           stroke-linecap="butt"
           d="m 253.16798,121.09712 -0.0315,200.34646"
           fill-rule="evenodd"
           id="path55" /><path
           fill="#000000"
           fill-opacity="0"
           d="m 447.0506,210.91454 2.50803,36.21956"
           fill-rule="evenodd"
           id="path56" /><path
           stroke="#595959"
           stroke-width="1"
           stroke-linejoin="round"
           stroke-linecap="butt"
           d="m 447.0506,210.91454 2.09351,30.2339"
           fill-rule="evenodd"
           id="path57" /><path
           fill="#595959"
           stroke="#595959"
           stroke-width="1"
           stroke-linecap="butt"
           d="m 447.49634,241.26254 1.96127,4.41315 1.33432,-4.64136 z"
           fill-rule="evenodd"
           id="path58" /><path
           fill="#000000"
           fill-opacity="0"
           d="m 449.0502,240.86014 -2.25232,-33.33539"
           fill-rule="evenodd"
           id="path59" /><path
           stroke="#595959"
           stroke-width="1"
           stroke-linejoin="round"
           stroke-linecap="butt"
           d="m 449.0502,240.86014 -1.84781,-27.34905"
           fill-rule="evenodd"
           id="path60" /><path
           fill="#595959"
           stroke="#595959"
           stroke-width="1"
           stroke-linecap="butt"
           d="m 448.85034,213.39975 -1.95389,-4.41643 -1.34207,4.63913 z"
           fill-rule="evenodd"
           id="path61" /><path
           fill="#000000"
           fill-opacity="0"
           d="m 472.35013,190.14276 3.33035,74.49167"
           fill-rule="evenodd"
           id="path62" /><path
           stroke="#595959"
           stroke-width="1"
           stroke-linejoin="round"
           stroke-linecap="butt"
           d="m 472.35016,190.14276 3.06238,68.49765"
           fill-rule="evenodd"
           id="path63" /><path
           fill="#595959"
           stroke="#595959"
           stroke-width="1"
           stroke-linecap="butt"
           d="m 473.76242,258.71417 1.85278,4.45981 1.44739,-4.60736 z"
           fill-rule="evenodd"
           id="path64" /><path
           fill="#000000"
           fill-opacity="0"
           d="m 475.07376,251.717 -3.04257,-68.54929"
           fill-rule="evenodd"
           id="path65" /><path
           stroke="#595959"
           stroke-width="1"
           stroke-linejoin="round"
           stroke-linecap="butt"
           d="M 475.07373,251.71698 472.29721,189.1618"
           fill-rule="evenodd"
           id="path66" /><path
           fill="#595959"
           stroke="#595959"
           stroke-width="1"
           stroke-linecap="butt"
           d="m 473.94733,189.08858 -1.85135,-4.4604 -1.44888,4.60687 z"
           fill-rule="evenodd"
           id="path67" /><path
           fill="#000000"
           fill-opacity="0"
           d="m 507.59854,184.50966 -2.24042,95.26079"
           fill-rule="evenodd"
           id="path68" /><path
           stroke="#595959"
           stroke-width="1"
           stroke-linejoin="round"
           stroke-linecap="butt"
           d="m 507.59854,184.50966 -2.09937,89.26244"
           fill-rule="evenodd"
           id="path69" /><path
           fill="#595959"
           stroke="#595959"
           stroke-width="1"
           stroke-linecap="butt"
           d="m 503.8479,273.73328 1.54459,4.57568 1.75796,-4.49801 z"
           fill-rule="evenodd"
           id="path70" /><path
           fill="#000000"
           fill-opacity="0"
           d="m 505.65466,263.245 2.13132,-87.65669"
           fill-rule="evenodd"
           id="path71" /><path
           stroke="#595959"
           stroke-width="1"
           stroke-linejoin="round"
           stroke-linecap="butt"
           d="m 505.65466,263.24496 1.98547,-81.65843"
           fill-rule="evenodd"
           id="path72" /><path
           fill="#595959"
           stroke="#595959"
           stroke-width="1"
           stroke-linecap="butt"
           d="m 509.29138,181.62668 -1.54095,-4.57692 -1.76154,4.49661 z"
           fill-rule="evenodd"
           id="path73" /><path
           fill="#000000"
           fill-opacity="0"
           d="m 391.10986,221.41579 -8.96741,58.51186"
           fill-rule="evenodd"
           id="path74" /><path
           stroke="#595959"
           stroke-width="1"
           stroke-linejoin="round"
           stroke-linecap="butt"
           d="m 391.10986,221.41579 -8.05847,52.58113"
           fill-rule="evenodd"
           id="path75" /><path
           fill="#595959"
           stroke="#595959"
           stroke-width="1"
           stroke-linecap="butt"
           d="m 381.4187,273.74667 0.94519,4.73596 2.32016,-4.2355 z"
           fill-rule="evenodd"
           id="path76" /><path
           fill="#000000"
           fill-opacity="0"
           d="m 383.72604,269.78323 8.23044,-53.84575"
           fill-rule="evenodd"
           id="path77" /><path
           stroke="#595959"
           stroke-width="1"
           stroke-linejoin="round"
           stroke-linecap="butt"
           d="m 383.72604,269.78323 7.32385,-47.91461"
           fill-rule="evenodd"
           id="path78" /><path
           fill="#595959"
           stroke="#595959"
           stroke-width="1"
           stroke-linecap="butt"
           d="m 392.68268,222.11818 -0.94708,-4.73557 -2.31845,4.23642 z"
           fill-rule="evenodd"
           id="path79" /><path
           fill="#000000"
           fill-opacity="0"
           d="m 368.4461,202.0925 -1.71652,43.05176"
           fill-rule="evenodd"
           id="path80" /><path
           stroke="#595959"
           stroke-width="1"
           stroke-linejoin="round"
           stroke-linecap="butt"
           d="m 368.4461,202.0925 -1.47748,37.05652"
           fill-rule="evenodd"
           id="path81" /><path
           fill="#595959"
           stroke="#595959"
           stroke-width="1"
           stroke-linecap="butt"
           d="m 365.3182,239.0832 1.4696,4.60031 1.83124,-4.46869 z"
           fill-rule="evenodd"
           id="path82" /><path
           fill="#000000"
           fill-opacity="0"
           d="m 367.12982,237.67268 1.50195,-39.61284"
           fill-rule="evenodd"
           id="path83" /><path
           stroke="#595959"
           stroke-width="1"
           stroke-linejoin="round"
           stroke-linecap="butt"
           d="m 367.12985,237.67267 1.2746,-33.61713"
           fill-rule="evenodd"
           id="path84" /><path
           fill="#595959"
           stroke="#595959"
           stroke-width="1"
           stroke-linecap="butt"
           d="m 370.055,204.11813 -1.47861,-4.59743 -1.82248,4.47226 z"
           fill-rule="evenodd"
           id="path85" /><path
           fill="#000000"
           fill-opacity="0"
           d="m 332.2372,194.97153 7.88446,85.80234"
           fill-rule="evenodd"
           id="path86" /><path
           stroke="#595959"
           stroke-width="1"
           stroke-linejoin="round"
           stroke-linecap="butt"
           d="m 332.2372,194.97154 7.33545,79.8275"
           fill-rule="evenodd"
           id="path87" /><path
           fill="#595959"
           stroke="#595959"
           stroke-width="1"
           stroke-linecap="butt"
           d="m 337.92786,274.95016 2.06006,4.36792 1.22952,-4.6702 z"
           fill-rule="evenodd"
           id="path88" /><path
           fill="#000000"
           fill-opacity="0"
           d="m 338.8254,265.8797 -7.3092,-78.94604"
           fill-rule="evenodd"
           id="path89" /><path
           stroke="#595959"
           stroke-width="1"
           stroke-linejoin="round"
           stroke-linecap="butt"
           d="m 338.8254,265.8797 -6.75604,-72.9716"
           fill-rule="evenodd"
           id="path90" /><path
           fill="#595959"
           stroke="#595959"
           stroke-width="1"
           stroke-linecap="butt"
           d="m 333.71405,192.75581 -2.06305,-4.36649 -1.22635,4.67104 z"
           fill-rule="evenodd"
           id="path91" /></g></g></g></svg>
